<svg width="160" height="160" viewBox="0 0 160 160" fill="none" xmlns="http://www.w3.org/2000/svg">
<rect width="160" height="160" rx="80" fill="#EAA822"/>
<g filter="url(#filter0_d_1067_507)">
<path d="M51.1935 36.79C47.3734 36.79 43.7099 38.3076 41.0087 41.0088C38.3075 43.71 36.79 47.3737 36.79 51.1938V91.5243C36.79 95.3445 38.3075 99.0081 41.0087 101.709C43.7099 104.411 47.3734 105.928 51.1935 105.928H62.6701C63.0944 105.357 63.5604 104.817 64.0643 104.315L68.2125 100.167H51.1935C48.9014 100.167 46.7033 99.2561 45.0826 97.6353C43.4619 96.0146 42.5514 93.8164 42.5514 91.5243V59.8361H100.165V59.9859C102.08 59.7795 104.013 59.7872 105.926 60.0089V51.1938C105.926 47.3737 104.409 43.71 101.708 41.0088C99.0066 38.3076 95.343 36.79 91.523 36.79H51.1935ZM82.4834 69.7689L79.1591 66.4387C78.8913 66.1709 78.5733 65.9584 78.2234 65.8135C77.8734 65.6685 77.4984 65.5939 77.1196 65.5939C76.7408 65.5939 76.3658 65.6685 76.0158 65.8135C75.6659 65.9584 75.3479 66.1709 75.0801 66.4387C74.8122 66.7066 74.5998 67.0246 74.4548 67.3745C74.3099 67.7245 74.2353 68.0995 74.2353 68.4783C74.2353 68.8571 74.3099 69.2322 74.4548 69.5821C74.5998 69.9321 74.8122 70.2501 75.0801 70.5179L79.3723 74.8045C80.2019 73.0338 81.239 71.3552 82.4834 69.7689ZM67.6364 70.5179C67.9042 70.2501 68.1167 69.9321 68.2616 69.5821C68.4066 69.2322 68.4812 68.8571 68.4812 68.4783C68.4812 68.0995 68.4066 67.7245 68.2616 67.3745C68.1167 67.0246 67.9042 66.7066 67.6364 66.4387C67.3686 66.1709 67.0506 65.9584 66.7007 65.8135C66.3507 65.6685 65.9756 65.5939 65.5969 65.5939C65.2181 65.5939 64.843 65.6685 64.4931 65.8135C64.1431 65.9584 63.8252 66.1709 63.5573 66.4387L52.0346 77.9618C51.7663 78.2294 51.5535 78.5473 51.4083 78.8972C51.2631 79.2472 51.1883 79.6224 51.1883 80.0013C51.1883 80.3802 51.2631 80.7554 51.4083 81.1054C51.5535 81.4554 51.7663 81.7733 52.0346 82.0409L63.5573 93.5639C64.0983 94.1048 64.8319 94.4087 65.5969 94.4087C66.3618 94.4087 67.0955 94.1048 67.6364 93.5639C68.1773 93.023 68.4812 92.2893 68.4812 91.5243C68.4812 90.7594 68.1773 90.0257 67.6364 89.4848L58.1474 80.0013L67.6364 70.5179ZM105.304 65.7358C107.413 65.9778 108.018 68.5014 106.514 70.0109L100.897 75.6283C99.2679 77.2572 98.3528 79.4665 98.3528 81.7701C98.3528 82.9107 98.5775 84.0402 99.014 85.094C99.4505 86.1478 100.09 87.1053 100.897 87.9119C101.703 88.7184 102.661 89.3582 103.715 89.7947C104.768 90.2312 105.898 90.4559 107.038 90.4559C109.342 90.4559 111.551 89.5408 113.18 87.9119L118.797 82.2944C120.301 80.7907 122.83 81.3956 123.072 83.5043C123.474 86.9284 122.995 90.3982 121.681 93.5857C120.368 96.7732 118.263 99.573 115.566 101.72C112.869 103.868 109.669 105.292 106.269 105.858C102.868 106.423 99.3791 106.113 96.1321 104.954L80.4266 120.666C79.6201 121.473 78.6626 122.112 77.6088 122.549C76.555 122.985 75.4256 123.21 74.285 123.21C73.1444 123.21 72.015 122.985 70.9612 122.549C69.9074 122.112 68.9499 121.473 68.1434 120.666C67.3369 119.859 66.6971 118.902 66.2606 117.848C65.8241 116.794 65.5995 115.665 65.5995 114.524C65.5995 113.384 65.8241 112.254 66.2606 111.2C66.6971 110.147 67.3369 109.189 68.1434 108.383L83.8489 92.6766C82.6904 89.429 82.3795 85.9396 82.9456 82.5383C83.5118 79.137 84.9362 75.9364 87.0842 73.2392C89.2323 70.542 92.0329 68.4373 95.2211 67.1244C98.4093 65.8114 101.88 65.3335 105.304 65.7358Z" fill="white"/>
</g>
<defs>
<filter id="filter0_d_1067_507" x="32.79" y="36.79" width="94.42" height="94.42" filterUnits="userSpaceOnUse" color-interpolation-filters="sRGB">
<feFlood flood-opacity="0" result="BackgroundImageFix"/>
<feColorMatrix in="SourceAlpha" type="matrix" values="0 0 0 0 0 0 0 0 0 0 0 0 0 0 0 0 0 0 127 0" result="hardAlpha"/>
<feOffset dy="4"/>
<feGaussianBlur stdDeviation="2"/>
<feComposite in2="hardAlpha" operator="out"/>
<feColorMatrix type="matrix" values="0 0 0 0 0 0 0 0 0 0 0 0 0 0 0 0 0 0 0.25 0"/>
<feBlend mode="normal" in2="BackgroundImageFix" result="effect1_dropShadow_1067_507"/>
<feBlend mode="normal" in="SourceGraphic" in2="effect1_dropShadow_1067_507" result="shape"/>
</filter>
</defs>
</svg>
