<svg width="200" height="200" viewBox="0 0 200 200" fill="none" xmlns="http://www.w3.org/2000/svg">
<rect width="200" height="200" rx="60" fill="url(#paint0_linear_86_159)"/>
<g filter="url(#filter0_d_86_159)">
<path d="M62.8961 42.1986C57.2469 42.1986 51.829 44.4428 47.8344 48.4375C43.8398 52.4322 41.5957 57.8501 41.5957 63.4995V123.142C41.5957 128.791 43.8398 134.209 47.8344 138.204C51.829 142.199 57.2469 144.443 62.8961 144.443H79.8682C80.4956 143.598 81.1848 142.8 81.9301 142.057L88.0646 135.922H62.8961C59.5065 135.922 56.2558 134.576 53.8591 132.179C51.4623 129.782 50.1158 126.532 50.1158 123.142V76.28H135.317V76.5015C138.15 76.1963 141.007 76.2077 143.837 76.5356V63.4995C143.837 57.8501 141.593 52.4322 137.599 48.4375C133.604 44.4428 128.186 42.1986 122.537 42.1986H62.8961ZM109.169 90.9691L104.253 86.0443C103.857 85.6482 103.387 85.334 102.869 85.1197C102.352 84.9053 101.797 84.795 101.237 84.795C100.677 84.795 100.122 84.9053 99.6044 85.1197C99.0869 85.334 98.6167 85.6482 98.2206 86.0443C97.8245 86.4404 97.5103 86.9106 97.2959 87.4282C97.0816 87.9457 96.9713 88.5004 96.9713 89.0605C96.9713 89.6207 97.0816 90.1754 97.2959 90.6929C97.5103 91.2104 97.8245 91.6806 98.2206 92.0767L104.568 98.4159C105.795 95.7973 107.329 93.315 109.169 90.9691ZM87.2126 92.0767C87.6086 91.6806 87.9228 91.2104 88.1372 90.6929C88.3515 90.1754 88.4619 89.6207 88.4619 89.0605C88.4619 88.5004 88.3515 87.9457 88.1372 87.4282C87.9228 86.9106 87.6086 86.4404 87.2126 86.0443C86.8165 85.6482 86.3462 85.334 85.8287 85.1197C85.3112 84.9053 84.7566 84.795 84.1964 84.795C83.6363 84.795 83.0816 84.9053 82.5641 85.1197C82.0466 85.334 81.5764 85.6482 81.1803 86.0443L64.14 103.085C63.7433 103.481 63.4285 103.951 63.2138 104.468C62.999 104.986 62.8884 105.541 62.8884 106.101C62.8884 106.662 62.999 107.216 63.2138 107.734C63.4285 108.252 63.7433 108.722 64.14 109.117L81.1803 126.158C81.9802 126.958 83.0652 127.407 84.1964 127.407C85.3277 127.407 86.4126 126.958 87.2126 126.158C88.0125 125.358 88.4619 124.273 88.4619 123.142C88.4619 122.011 88.0125 120.926 87.2126 120.126L73.1799 106.101L87.2126 92.0767ZM142.917 85.0048C146.036 85.3627 146.93 89.0946 144.706 91.3269L136.399 99.6343C133.991 102.043 132.637 105.31 132.637 108.717C132.637 110.404 132.969 112.074 133.615 113.632C134.26 115.191 135.207 116.607 136.399 117.8C137.592 118.992 139.008 119.939 140.566 120.584C142.125 121.23 143.795 121.562 145.482 121.562C148.888 121.562 152.155 120.209 154.564 117.8L162.871 109.492C165.095 107.269 168.836 108.163 169.193 111.282C169.787 116.345 169.079 121.477 167.137 126.19C165.194 130.904 162.082 135.045 158.093 138.22C154.105 141.396 149.372 143.502 144.343 144.339C139.314 145.175 134.155 144.716 129.353 143.003L106.127 166.238C104.935 167.431 103.519 168.377 101.96 169.022C100.402 169.668 98.7316 170 97.0448 170C95.358 170 93.6878 169.668 92.1294 169.022C90.571 168.377 89.1551 167.431 87.9623 166.238C86.7696 165.045 85.8235 163.629 85.178 162.071C84.5325 160.512 84.2002 158.842 84.2002 157.155C84.2002 155.468 84.5325 153.798 85.178 152.24C85.8235 150.681 86.7696 149.265 87.9623 148.072L111.188 124.846C109.475 120.043 109.015 114.883 109.852 109.853C110.69 104.823 112.796 100.09 115.973 96.1011C119.149 92.1123 123.291 88.9999 128.006 87.0582C132.721 85.1166 137.853 84.4098 142.917 85.0048Z" fill="white"/>
</g>
<defs>
<filter id="filter0_d_86_159" x="37.5957" y="42.1986" width="135.802" height="135.801" filterUnits="userSpaceOnUse" color-interpolation-filters="sRGB">
<feFlood flood-opacity="0" result="BackgroundImageFix"/>
<feColorMatrix in="SourceAlpha" type="matrix" values="0 0 0 0 0 0 0 0 0 0 0 0 0 0 0 0 0 0 127 0" result="hardAlpha"/>
<feOffset dy="4"/>
<feGaussianBlur stdDeviation="2"/>
<feComposite in2="hardAlpha" operator="out"/>
<feColorMatrix type="matrix" values="0 0 0 0 0 0 0 0 0 0 0 0 0 0 0 0 0 0 0.25 0"/>
<feBlend mode="normal" in2="BackgroundImageFix" result="effect1_dropShadow_86_159"/>
<feBlend mode="normal" in="SourceGraphic" in2="effect1_dropShadow_86_159" result="shape"/>
</filter>
<linearGradient id="paint0_linear_86_159" x1="108.865" y1="72.3404" x2="232.979" y2="246.454" gradientUnits="userSpaceOnUse">
<stop stop-color="#D000F6"/>
<stop offset="1" stop-color="#6D02C4"/>
</linearGradient>
</defs>
</svg>
