<svg width="200" height="200" viewBox="0 0 200 200" fill="none" xmlns="http://www.w3.org/2000/svg">
<rect width="200" height="200" rx="60" fill="url(#paint0_linear_86_147)"/>
<g filter="url(#filter0_d_86_147)">
<path d="M92.8721 62.7408C87.8568 62.7408 83.2164 64.3145 79.3997 66.9931C79.1519 63.156 78.2748 59.8279 76.661 56.8815C81.7582 54.0605 87.5031 52.6185 93.3282 52.6979C99.1532 52.7772 104.857 54.3752 109.875 57.334C114.894 60.2928 119.053 64.5098 121.943 69.5685C124.833 74.6272 126.352 80.3524 126.352 86.1784H141.425C144.531 86.1784 147.511 87.4121 149.708 89.6084C151.906 91.8046 153.141 94.7836 153.143 97.8905V134.721C153.144 136.261 152.841 137.786 152.252 139.209C151.663 140.632 150.8 141.925 149.711 143.014C148.622 144.103 147.329 144.967 145.906 145.556C144.483 146.145 142.958 146.447 141.418 146.446H104.59C101.482 146.446 98.5017 145.212 96.3042 143.014C94.1066 140.816 92.8721 137.836 92.8721 134.728V119.661C88.2146 119.663 83.6077 118.694 79.3461 116.815C79.4354 114.542 79.48 112.143 79.48 109.616V109.201C79.48 108.082 79.48 106.797 79.46 105.404C83.3943 108.147 88.0757 109.618 92.8721 109.616V97.8972C92.8721 91.4284 98.1217 86.1784 104.59 86.1784H116.308C116.308 79.9624 113.839 74.0009 109.444 69.6055C105.049 65.2102 99.0877 62.7408 92.8721 62.7408ZM124.819 96.2231C123.197 101.366 120.359 106.042 116.547 109.855C112.734 113.667 108.058 116.505 102.916 118.127V134.728C102.916 135.652 103.666 136.402 104.59 136.402H141.418C141.862 136.402 142.288 136.225 142.602 135.911C142.916 135.597 143.092 135.172 143.092 134.728V97.8972C143.092 97.4532 142.916 97.0274 142.602 96.7134C142.288 96.3994 141.862 96.2231 141.418 96.2231H124.819ZM114.052 96.2231H104.59C104.146 96.2231 103.72 96.3994 103.406 96.7134C103.092 97.0274 102.916 97.4532 102.916 97.8972V107.359C107.801 105.043 111.735 101.109 114.052 96.2231ZM63.2824 46.8368C63.8382 47.323 64.2177 47.9793 64.3618 48.7035C64.5059 49.4278 64.4066 50.1793 64.0792 50.8413C64.0198 51.0366 63.9904 51.2398 63.9922 51.4439C63.9922 51.8658 64.0993 52.6694 65.1104 53.6739C65.5992 54.1627 65.9742 54.5109 66.3827 54.8926C66.7175 55.2006 67.0723 55.5221 67.521 55.964C68.3915 56.7944 69.3088 57.7721 70.1324 58.9975C71.8399 61.5623 72.784 64.7699 72.784 69.4373C72.784 75.1494 70.6681 80.0177 67.367 83.0043L67.7955 83.4998C69.6704 85.8034 70.7618 88.79 71.4448 91.7364C72.784 97.5624 72.784 104.567 72.784 109.449V109.616C72.784 128.279 70.2463 138.866 67.454 144.92C66.0479 147.966 64.5546 149.908 63.2623 151.127C62.7362 151.63 62.1569 152.075 61.5347 152.453C61.2495 152.625 60.9518 152.775 60.6442 152.902C60.6442 152.902 59.8875 153.143 59.392 153.143C58.8965 153.143 58.1399 152.902 58.1399 152.902C57.8323 152.775 57.5346 152.625 57.2493 152.453C56.6271 152.075 56.0478 151.63 55.5217 151.127C54.2294 149.902 52.7362 147.966 51.33 144.92C48.5378 138.866 46 128.279 46 109.616V109.449C46 104.56 46 97.5624 47.3392 91.7364C48.0222 88.79 49.1136 85.8034 50.9885 83.4998C51.1224 83.3302 51.2653 83.165 51.4171 83.0043C48.1159 80.0177 46 75.1494 46 69.4373C46 67.2542 46.5826 64.6493 47.3861 62.2453C48.1896 59.8413 49.3145 57.3435 50.6135 55.3346C52.1603 52.723 54.3365 50.5332 56.0239 49.06C56.9524 48.2504 57.9177 47.484 58.9166 46.7631L59.2112 46.5622C59.8252 46.1529 60.5572 45.9579 61.2935 46.0076C62.0297 46.0572 62.7289 46.3487 63.2824 46.8368Z" fill="white"/>
</g>
<defs>
<filter id="filter0_d_86_147" x="42" y="46" width="115.143" height="115.143" filterUnits="userSpaceOnUse" color-interpolation-filters="sRGB">
<feFlood flood-opacity="0" result="BackgroundImageFix"/>
<feColorMatrix in="SourceAlpha" type="matrix" values="0 0 0 0 0 0 0 0 0 0 0 0 0 0 0 0 0 0 127 0" result="hardAlpha"/>
<feOffset dy="4"/>
<feGaussianBlur stdDeviation="2"/>
<feComposite in2="hardAlpha" operator="out"/>
<feColorMatrix type="matrix" values="0 0 0 0 0 0 0 0 0 0 0 0 0 0 0 0 0 0 0.25 0"/>
<feBlend mode="normal" in2="BackgroundImageFix" result="effect1_dropShadow_86_147"/>
<feBlend mode="normal" in="SourceGraphic" in2="effect1_dropShadow_86_147" result="shape"/>
</filter>
<linearGradient id="paint0_linear_86_147" x1="125.357" y1="121.786" x2="-3.39176e-06" y2="-20.7143" gradientUnits="userSpaceOnUse">
<stop stop-color="#EFAE2A"/>
<stop offset="1" stop-color="#D99203"/>
</linearGradient>
</defs>
</svg>
