<svg width="160" height="160" viewBox="0 0 160 160" fill="none" xmlns="http://www.w3.org/2000/svg">
<rect width="160" height="160" rx="80" fill="#CB33F9"/>
<g filter="url(#filter0_d_1067_503)">
<path d="M75.9804 57.9017C72.9712 57.9017 70.187 58.8459 67.897 60.453C67.7483 58.1508 67.222 56.1539 66.2538 54.3861C69.3121 52.6935 72.759 51.8283 76.2541 51.8759C79.7491 51.9235 83.1712 52.8823 86.1823 54.6576C89.1933 56.4328 91.6891 58.9631 93.4229 61.9983C95.1567 65.0335 96.0686 68.4686 96.0684 71.9642H105.112C106.976 71.9642 108.764 72.7045 110.082 74.0222C111.401 75.34 112.142 77.1274 112.143 78.9915V101.09C112.143 102.014 111.962 102.929 111.608 103.783C111.255 104.636 110.737 105.412 110.084 106.066C109.43 106.719 108.655 107.237 107.801 107.591C106.947 107.944 106.032 108.126 105.108 108.125H83.0112C81.1465 108.125 79.3582 107.384 78.0397 106.066C76.7212 104.747 75.9804 102.959 75.9804 101.094V92.0536C73.1859 92.0551 70.4218 91.4735 67.8649 90.346C67.9184 88.9826 67.9452 87.5428 67.9452 86.0267V85.7776C67.9452 85.1067 67.9452 84.3352 67.9332 83.4995C70.2938 85.1456 73.1026 86.0277 75.9804 86.0267V78.9955C75.9804 75.1142 79.1302 71.9642 83.0112 71.9642H90.042C90.042 68.2346 88.5606 64.6577 85.9235 62.0205C83.2864 59.3833 79.7098 57.9017 75.9804 57.9017ZM95.1484 77.991C94.1753 81.0766 92.4728 83.8821 90.1852 86.1699C87.8975 88.4577 85.0922 90.1603 82.0068 91.1335V101.094C82.0068 101.648 82.4568 102.098 83.0112 102.098H105.108C105.374 102.098 105.63 101.992 105.818 101.804C106.007 101.616 106.112 101.36 106.112 101.094V78.9955C106.112 78.7291 106.007 78.4736 105.818 78.2852C105.63 78.0968 105.374 77.991 105.108 77.991H95.1484ZM88.6881 77.991H83.0112C82.7448 77.991 82.4894 78.0968 82.301 78.2852C82.1126 78.4736 82.0068 78.7291 82.0068 78.9955V84.6727C84.9379 83.2829 87.2983 80.9223 88.6881 77.991ZM58.2266 48.3592C58.5601 48.651 58.7878 49.0447 58.8743 49.4793C58.9607 49.9138 58.9011 50.3648 58.7047 50.7619C58.669 50.8791 58.6514 51.0011 58.6525 51.1235C58.6525 51.3767 58.7168 51.8588 59.3234 52.4615C59.6167 52.7548 59.8417 52.9637 60.0868 53.1927C60.2877 53.3776 60.5006 53.5704 60.7698 53.8356C61.2921 54.3338 61.8425 54.9204 62.3366 55.6557C63.3611 57.1945 63.9276 59.1191 63.9276 61.9195C63.9276 65.3468 62.658 68.2678 60.6774 70.0597L60.9345 70.3571C62.0594 71.7392 62.7143 73.5312 63.1241 75.299C63.9276 78.7946 63.9276 82.9973 63.9276 85.9263V86.0267C63.9276 97.2245 62.4049 103.577 60.7296 107.209C59.8859 109.037 58.99 110.202 58.2146 110.934C57.8989 111.235 57.5513 111.502 57.178 111.729C57.0068 111.832 56.8282 111.922 56.6437 111.998C56.6437 111.998 56.1897 112.143 55.8924 112.143C55.5951 112.143 55.1411 111.998 55.1411 111.998C54.9565 111.922 54.7779 111.832 54.6068 111.729C54.2334 111.502 53.8859 111.235 53.5702 110.934C52.7948 110.198 51.8989 109.037 51.0552 107.209C49.3799 103.577 47.8572 97.2245 47.8572 86.0267V85.9263C47.8572 82.9933 47.8572 78.7946 48.6607 75.299C49.0705 73.5312 49.7254 71.7392 50.8503 70.3571C50.9306 70.2553 51.0164 70.1562 51.1074 70.0597C49.1267 68.2678 47.8572 65.3468 47.8572 61.9195C47.8572 60.6097 48.2067 59.0468 48.6888 57.6044C49.1709 56.1619 49.8459 54.6633 50.6253 53.4579C51.5534 51.891 52.8591 50.5771 53.8715 49.6932C54.4286 49.2074 55.0078 48.7476 55.6071 48.3151L55.7839 48.1945C56.1523 47.9489 56.5915 47.8319 57.0333 47.8617C57.475 47.8915 57.8945 48.0664 58.2266 48.3592Z" fill="white"/>
</g>
<defs>
<filter id="filter0_d_1067_503" x="43.8572" y="47.8572" width="72.2856" height="72.2856" filterUnits="userSpaceOnUse" color-interpolation-filters="sRGB">
<feFlood flood-opacity="0" result="BackgroundImageFix"/>
<feColorMatrix in="SourceAlpha" type="matrix" values="0 0 0 0 0 0 0 0 0 0 0 0 0 0 0 0 0 0 127 0" result="hardAlpha"/>
<feOffset dy="4"/>
<feGaussianBlur stdDeviation="2"/>
<feComposite in2="hardAlpha" operator="out"/>
<feColorMatrix type="matrix" values="0 0 0 0 0 0 0 0 0 0 0 0 0 0 0 0 0 0 0.25 0"/>
<feBlend mode="normal" in2="BackgroundImageFix" result="effect1_dropShadow_1067_503"/>
<feBlend mode="normal" in="SourceGraphic" in2="effect1_dropShadow_1067_503" result="shape"/>
</filter>
</defs>
</svg>
