<svg width="200" height="201" viewBox="0 0 200 201" fill="none" xmlns="http://www.w3.org/2000/svg">
<rect y="0.5" width="200" height="200" rx="60" fill="url(#paint0_linear_69_23)"/>
<g filter="url(#filter0_d_69_23)">
<path d="M100.191 64.4834C100.191 62.122 99.7317 59.7837 98.8382 57.602C97.9448 55.4203 96.6353 53.438 94.9845 51.7683C93.3337 50.0985 91.3738 48.774 89.2169 47.8703C87.06 46.9666 84.7483 46.5015 82.4136 46.5015H65.0065C62.6529 46.4709 60.3166 46.9133 58.1333 47.8032C55.9501 48.693 53.9632 50.0126 52.2881 51.6852C50.613 53.3579 49.283 55.3504 48.3752 57.5471C47.4674 59.7438 47 62.101 47 64.4819C47 66.8628 47.4674 69.22 48.3752 71.4167C49.283 73.6134 50.613 75.6059 52.2881 77.2785C53.9632 78.9512 55.9501 80.2708 58.1333 81.1606C60.3166 82.0505 62.6529 82.4929 65.0065 82.4623H68.4138V91.1437C68.4138 91.1437 100.191 86.8045 100.191 64.4834ZM84.0084 111.977C84.0084 118.554 78.7416 123.881 72.2389 123.881C65.7363 123.881 60.4694 118.554 60.4694 111.977C60.4694 105.399 65.7363 100.072 72.2389 100.072C78.7416 100.072 84.0084 105.399 84.0084 111.977ZM72.2389 129.834C63.8914 129.834 47.2287 134.09 47.2287 142.533V153.643H97.2491V142.533C97.2491 134.087 80.5864 129.834 72.2389 129.834ZM128.144 123.881C134.647 123.881 139.914 118.554 139.914 111.977C139.914 105.399 134.647 100.072 128.144 100.072C121.641 100.072 116.375 105.399 116.375 111.977C116.375 118.554 121.641 123.881 128.144 123.881ZM128.144 129.834C119.797 129.834 103.134 134.09 103.134 142.533V153.643H153.154V142.533C153.154 134.087 136.492 129.834 128.144 129.834ZM123.854 49.4776C119.139 49.4776 114.617 51.3722 111.283 54.7444C107.949 58.1167 106.076 62.6904 106.076 67.4595C106.076 89.7806 134.323 94.1199 134.323 94.1199V85.4384H135.376C137.73 85.4691 140.066 85.0266 142.25 84.1368C144.433 83.2469 146.42 81.9274 148.095 80.2547C149.77 78.582 151.1 76.5895 152.008 74.3928C152.916 72.1961 153.383 69.8389 153.383 67.458C153.383 65.0772 152.916 62.72 152.008 60.5233C151.1 58.3266 149.77 56.3341 148.095 54.6614C146.42 52.9887 144.433 51.6692 142.25 50.7793C140.066 49.8895 137.73 49.447 135.376 49.4776H123.854Z" fill="white"/>
</g>
<defs>
<filter id="filter0_d_69_23" x="43" y="46.5" width="114.383" height="115.143" filterUnits="userSpaceOnUse" color-interpolation-filters="sRGB">
<feFlood flood-opacity="0" result="BackgroundImageFix"/>
<feColorMatrix in="SourceAlpha" type="matrix" values="0 0 0 0 0 0 0 0 0 0 0 0 0 0 0 0 0 0 127 0" result="hardAlpha"/>
<feOffset dy="4"/>
<feGaussianBlur stdDeviation="2"/>
<feComposite in2="hardAlpha" operator="out"/>
<feColorMatrix type="matrix" values="0 0 0 0 0 0 0 0 0 0 0 0 0 0 0 0 0 0 0.25 0"/>
<feBlend mode="normal" in2="BackgroundImageFix" result="effect1_dropShadow_69_23"/>
<feBlend mode="normal" in="SourceGraphic" in2="effect1_dropShadow_69_23" result="shape"/>
</filter>
<linearGradient id="paint0_linear_69_23" x1="88.2979" y1="130.143" x2="278.509" y2="1.75889" gradientUnits="userSpaceOnUse">
<stop stop-color="#17CB82"/>
<stop offset="1" stop-color="#04A262"/>
</linearGradient>
</defs>
</svg>
