<svg width="160" height="160" viewBox="0 0 160 160" fill="none" xmlns="http://www.w3.org/2000/svg">
<rect width="160" height="160" rx="80" fill="#17CB82"/>
<g filter="url(#filter0_d_1067_505)">
<path d="M80 51.2955C80 49.3908 79.6265 47.5048 78.9007 45.7451C78.175 43.9855 77.1112 42.3866 75.7701 41.0398C74.4291 39.693 72.837 38.6246 71.0849 37.8958C69.3327 37.1669 67.4548 36.7917 65.5582 36.7917H51.4176C49.5056 36.767 47.6078 37.1239 45.8342 37.8416C44.0606 38.5594 42.4466 39.6237 41.0858 40.9728C39.7251 42.322 38.6446 43.9291 37.9072 45.7009C37.1698 47.4727 36.79 49.3739 36.79 51.2943C36.79 53.2147 37.1698 55.1159 37.9072 56.8877C38.6446 58.6595 39.7251 60.2666 41.0858 61.6158C42.4466 62.9649 44.0606 64.0292 45.8342 64.747C47.6078 65.4647 49.5056 65.8216 51.4176 65.7969H54.1855V72.7991C54.1855 72.7991 80 69.2992 80 51.2955ZM66.8538 89.6025C66.8538 94.9076 62.5752 99.2045 57.2928 99.2045C52.0104 99.2045 47.7319 94.9076 47.7319 89.6025C47.7319 84.2975 52.0104 80.0006 57.2928 80.0006C62.5752 80.0006 66.8538 84.2975 66.8538 89.6025ZM57.2928 104.005C50.5117 104.005 36.9758 107.438 36.9758 114.248V123.209H77.6098V114.248C77.6098 107.436 64.0739 104.005 57.2928 104.005ZM102.707 99.2045C107.99 99.2045 112.268 94.9076 112.268 89.6025C112.268 84.2975 107.99 80.0006 102.707 80.0006C97.4248 80.0006 93.1463 84.2975 93.1463 89.6025C93.1463 94.9076 97.4248 99.2045 102.707 99.2045ZM102.707 104.005C95.9262 104.005 82.3903 107.438 82.3903 114.248V123.209H123.024V114.248C123.024 107.436 109.488 104.005 102.707 104.005ZM99.2223 39.1922C95.3921 39.1922 91.7188 40.7203 89.0104 43.4403C86.3021 46.1603 84.7805 49.8493 84.7805 53.696C84.7805 71.6997 107.727 75.1996 107.727 75.1996V68.1974H108.582C110.494 68.2221 112.392 67.8652 114.166 67.1475C115.939 66.4297 117.553 65.3654 118.914 64.0163C120.275 62.6671 121.355 61.06 122.093 59.2882C122.83 57.5164 123.21 55.6152 123.21 53.6948C123.21 51.7744 122.83 49.8732 122.093 48.1014C121.355 46.3296 120.275 44.7225 118.914 43.3733C117.553 42.0242 115.939 40.9599 114.166 40.2421C112.392 39.5244 110.494 39.1675 108.582 39.1922H99.2223Z" fill="white"/>
</g>
<defs>
<filter id="filter0_d_1067_505" x="32.79" y="36.7905" width="94.42" height="94.4189" filterUnits="userSpaceOnUse" color-interpolation-filters="sRGB">
<feFlood flood-opacity="0" result="BackgroundImageFix"/>
<feColorMatrix in="SourceAlpha" type="matrix" values="0 0 0 0 0 0 0 0 0 0 0 0 0 0 0 0 0 0 127 0" result="hardAlpha"/>
<feOffset dy="4"/>
<feGaussianBlur stdDeviation="2"/>
<feComposite in2="hardAlpha" operator="out"/>
<feColorMatrix type="matrix" values="0 0 0 0 0 0 0 0 0 0 0 0 0 0 0 0 0 0 0.25 0"/>
<feBlend mode="normal" in2="BackgroundImageFix" result="effect1_dropShadow_1067_505"/>
<feBlend mode="normal" in="SourceGraphic" in2="effect1_dropShadow_1067_505" result="shape"/>
</filter>
</defs>
</svg>
