<svg width="200" height="200" viewBox="0 0 200 200" fill="none" xmlns="http://www.w3.org/2000/svg">
<rect width="200" height="200" rx="60" fill="url(#paint0_linear_86_166)"/>
<g filter="url(#filter0_d_86_166)">
<path d="M142.61 117.087C144.82 111.755 146.02 106.046 146.02 99.7719C146.02 95.2547 145.326 90.9259 144.126 86.9107C140.022 87.8517 135.728 88.3536 131.245 88.3536C122.064 88.3634 113.015 86.1799 104.861 81.9871C96.7068 77.7944 89.6869 71.7153 84.3928 64.2624C78.7349 77.8811 68.0496 88.8345 54.5262 94.8783C54.2736 96.4468 54.2736 98.1407 54.2736 99.7719C54.2736 105.761 55.461 111.692 57.7679 117.226C60.0749 122.76 63.4562 127.788 67.7189 132.023C76.3277 140.577 88.0038 145.382 100.179 145.382C106.809 145.382 113.186 143.939 118.932 141.367C122.531 148.205 124.173 151.593 124.047 151.593C113.691 155.044 105.672 156.738 100.179 156.738C84.8979 156.738 70.3119 150.777 59.5776 140.049C53.0427 133.587 48.1884 125.642 45.4336 116.899H37.0356V88.3536H43.9182C46.0035 78.2686 50.7976 68.9326 57.7919 61.3363C64.7862 53.7399 73.7198 48.1665 83.6447 45.2075C93.5697 42.2485 104.116 42.0142 114.164 44.5296C124.212 47.045 133.387 52.2161 140.716 59.4943C148.671 67.3715 154.098 77.414 156.312 88.3536H163.321V116.899H162.943L140.464 137.414L106.998 133.65V123.173H137.496L142.61 117.087ZM82.9405 98.3289C84.8348 98.3289 86.6659 99.0817 87.9919 100.462C89.3245 101.797 90.0723 103.601 90.0723 105.481C90.0723 107.361 89.3245 109.165 87.9919 110.5C86.6659 111.817 84.8348 112.57 82.9405 112.57C78.9625 112.57 75.7422 109.433 75.7422 105.481C75.7422 101.529 78.9625 98.3289 82.9405 98.3289ZM117.353 98.3289C121.331 98.3289 124.489 101.529 124.489 105.481C124.489 109.433 121.331 112.57 117.353 112.57C113.375 112.57 110.155 109.433 110.155 105.481C110.155 103.584 110.913 101.765 112.263 100.424C113.613 99.0824 115.444 98.3289 117.353 98.3289Z" fill="white"/>
</g>
<defs>
<filter id="filter0_d_86_166" x="33.0356" y="42.8014" width="134.286" height="121.936" filterUnits="userSpaceOnUse" color-interpolation-filters="sRGB">
<feFlood flood-opacity="0" result="BackgroundImageFix"/>
<feColorMatrix in="SourceAlpha" type="matrix" values="0 0 0 0 0 0 0 0 0 0 0 0 0 0 0 0 0 0 127 0" result="hardAlpha"/>
<feOffset dy="4"/>
<feGaussianBlur stdDeviation="2"/>
<feComposite in2="hardAlpha" operator="out"/>
<feColorMatrix type="matrix" values="0 0 0 0 0 0 0 0 0 0 0 0 0 0 0 0 0 0 0.25 0"/>
<feBlend mode="normal" in2="BackgroundImageFix" result="effect1_dropShadow_86_166"/>
<feBlend mode="normal" in="SourceGraphic" in2="effect1_dropShadow_86_166" result="shape"/>
</filter>
<linearGradient id="paint0_linear_86_166" x1="113.571" y1="100" x2="-33.4874" y2="263.099" gradientUnits="userSpaceOnUse">
<stop stop-color="#E01D38"/>
<stop offset="1" stop-color="#960909"/>
</linearGradient>
</defs>
</svg>
