<svg width="160" height="160" viewBox="0 0 160 160" fill="none" xmlns="http://www.w3.org/2000/svg">
<rect width="160" height="160" rx="80" fill="#0076B2"/>
<g filter="url(#filter0_d_1067_509)">
<path d="M109.037 93.1356C110.55 89.0908 111.37 84.7605 111.37 80.0018C111.37 76.5756 110.895 73.2922 110.074 70.2467C107.266 70.9605 104.327 71.3412 101.259 71.3412C94.9765 71.3486 88.7841 69.6924 83.2042 66.5122C77.6243 63.3321 72.8204 58.7211 69.1975 53.0681C65.3257 63.3978 58.0136 71.7059 48.7592 76.2901C48.5864 77.4798 48.5864 78.7646 48.5864 80.0018C48.5864 84.5449 49.3989 89.0435 50.9776 93.2408C52.5563 97.4381 54.8702 101.252 57.7872 104.464C63.6784 110.952 71.6686 114.597 80 114.597C84.5371 114.597 88.9013 113.502 92.8334 111.551C95.2964 116.738 96.4198 119.308 96.3334 119.308C89.247 121.925 83.7593 123.21 80 123.21C69.5432 123.21 59.5617 118.689 52.216 110.552C47.744 105.65 44.4221 99.624 42.537 92.9929H36.79V71.3412H41.4999C42.9269 63.6918 46.2076 56.6105 50.994 50.8486C55.7803 45.0868 61.8938 40.8594 68.6856 38.615C75.4775 36.3706 82.6943 36.193 89.5705 38.1009C96.4466 40.0088 102.725 43.9311 107.741 49.4515C113.184 55.4264 116.898 63.0435 118.414 71.3412H123.21V92.9929H122.951L107.568 108.554L84.6667 105.698V97.7515H105.537L109.037 93.1356ZM68.2037 78.9074C69.5 78.9074 70.7531 79.4784 71.6605 80.5253C72.5724 81.5378 73.0841 82.9061 73.0841 84.3322C73.0841 85.7583 72.5724 87.1266 71.6605 88.1391C70.7531 89.1384 69.5 89.7094 68.2037 89.7094C65.4815 89.7094 63.2778 87.3301 63.2778 84.3322C63.2778 81.3343 65.4815 78.9074 68.2037 78.9074ZM91.7532 78.9074C94.4754 78.9074 96.6359 81.3343 96.6359 84.3322C96.6359 87.3301 94.4754 89.7094 91.7532 89.7094C89.0309 89.7094 86.8272 87.3301 86.8272 84.3322C86.8272 82.8934 87.3462 81.5136 88.27 80.4963C89.1938 79.4789 90.4467 78.9074 91.7532 78.9074Z" fill="white"/>
</g>
<defs>
<filter id="filter0_d_1067_509" x="32.79" y="36.79" width="94.4199" height="94.42" filterUnits="userSpaceOnUse" color-interpolation-filters="sRGB">
<feFlood flood-opacity="0" result="BackgroundImageFix"/>
<feColorMatrix in="SourceAlpha" type="matrix" values="0 0 0 0 0 0 0 0 0 0 0 0 0 0 0 0 0 0 127 0" result="hardAlpha"/>
<feOffset dy="4"/>
<feGaussianBlur stdDeviation="2"/>
<feComposite in2="hardAlpha" operator="out"/>
<feColorMatrix type="matrix" values="0 0 0 0 0 0 0 0 0 0 0 0 0 0 0 0 0 0 0.25 0"/>
<feBlend mode="normal" in2="BackgroundImageFix" result="effect1_dropShadow_1067_509"/>
<feBlend mode="normal" in="SourceGraphic" in2="effect1_dropShadow_1067_509" result="shape"/>
</filter>
</defs>
</svg>
