<svg width="143" height="143" viewBox="0 0 143 143" fill="none" xmlns="http://www.w3.org/2000/svg">
<path fill-rule="evenodd" clip-rule="evenodd" d="M16.2483 51.7074C18.0202 46.7533 20.4323 42.126 23.3768 37.9147L16.746 25.1362L34.9396 9.76719L46.4305 18.4398C51.0751 16.2394 56.0405 14.6359 61.2213 13.7172L65.5663 0L89.2998 1.99727L91.2896 16.2469C96.2451 18.0188 100.872 20.4309 105.085 23.3766L117.862 16.7471L133.231 34.9405L124.558 46.4313C126.758 51.0759 128.361 56.0413 129.279 61.222L142.999 65.567L141.001 89.299L126.752 91.2901C124.98 96.2443 122.566 100.873 119.621 105.084L126.251 117.863L108.057 133.23L96.567 124.558C91.9224 126.757 86.957 128.362 81.7762 129.279L77.4312 142.999L53.6978 141L51.7079 126.751C46.7537 124.979 42.1251 122.567 37.9138 119.621L25.1351 126.252L9.76728 108.057L18.4399 96.5674C16.2396 91.9216 14.6361 86.9563 13.7185 81.7767L0 77.4305L1.99605 53.6985L16.2483 51.7074ZM37.3232 67.5358C35.7296 86.461 49.7799 103.094 68.7065 104.687C87.6306 106.28 104.264 92.2287 105.856 73.3035C107.45 54.3796 93.3996 37.7463 74.4743 36.154C55.5489 34.5604 38.9156 48.6106 37.3232 67.5358Z" fill="#CBC8C8" fill-opacity="0.5"/>
</svg>
