<svg width="195" height="195" viewBox="0 0 195 195" fill="none" xmlns="http://www.w3.org/2000/svg">
<path fill-rule="evenodd" clip-rule="evenodd" d="M22.1567 70.5101C24.573 63.7544 27.8622 57.4445 31.8775 51.7019L22.8355 34.2766L47.6449 13.3189L63.3143 25.1452C69.6479 22.1447 76.4189 19.9581 83.4836 18.7052L89.4086 0L121.772 2.72355L124.486 22.1548C131.243 24.5711 137.553 27.8603 143.298 31.8772L160.721 22.837L181.679 47.6461L169.851 63.3154C172.852 69.649 175.038 76.4199 176.29 83.4846L194.998 89.4095L192.275 121.771L172.843 124.486C170.427 131.242 167.136 137.554 163.119 143.296L172.161 160.722L147.35 181.678L131.682 169.851C125.349 172.85 118.578 175.039 111.513 176.29L105.588 194.998L73.2242 192.273L70.5107 172.842C63.755 170.426 57.4433 167.136 51.7007 163.119L34.2752 172.161L13.319 147.35L25.1454 131.683C22.1449 125.348 19.9583 118.577 18.7071 111.514L0 105.587L2.72189 73.2253L22.1567 70.5101ZM50.8953 92.0943C48.7221 117.901 67.8817 140.583 93.6907 142.754C119.496 144.927 142.178 125.766 144.35 99.9593C146.523 74.1539 127.363 51.4723 101.556 49.3009C75.7485 47.1278 53.0667 66.2872 50.8953 92.0943Z" fill="#CBC8C8" fill-opacity="0.5"/>
</svg>
