<svg width="60" height="60" viewBox="0 0 60 60" fill="none" xmlns="http://www.w3.org/2000/svg">
<rect width="60" height="60" rx="5" fill="url(#paint0_linear_104_252)"/>
<path d="M26.1481 10H23.8726L22.3555 15.8153L20.8385 10H18.3101C18.8157 11.517 19.3214 12.7813 19.8271 14.2983C20.5856 16.321 21.0913 18.0909 21.0913 19.1023V25.1705H23.3669V19.1023L26.1481 10ZM32.2163 21.3779V17.5852C32.2163 16.321 31.9635 15.5625 31.4578 14.804C30.9521 14.0455 30.1936 13.7926 29.1822 13.7926C28.1709 13.7926 27.4123 14.2983 26.9067 15.0568C26.401 15.5625 26.1481 16.321 26.1481 17.5852V21.6307C26.1481 22.8949 26.401 23.6534 26.9067 24.1591C27.4123 24.9176 28.1709 25.1705 29.1822 25.1705C30.1936 25.1705 30.9521 24.6648 31.4578 23.9063C31.9635 23.6534 32.2163 22.6421 32.2163 21.3779ZM30.1936 21.8835C30.1936 22.8949 29.9408 23.4006 29.1822 23.4006C28.4237 23.4006 28.1709 22.8949 28.1709 21.8835V17.0796C28.1709 16.0682 28.4237 15.5625 29.1822 15.5625C29.9408 15.5625 30.1936 16.0682 30.1936 17.0796V21.8835ZM39.8016 25.1705V13.7926H37.7788V22.3892C37.2732 23.1477 37.0203 23.4006 36.5146 23.4006C36.2618 23.4006 36.0089 23.1477 36.0089 22.8949V13.7926H33.9862V22.6421C33.9862 23.4006 33.9862 23.9063 34.2391 24.4119C34.2391 24.9176 34.7447 25.1705 35.5033 25.1705C36.2618 25.1705 37.0203 24.6648 37.7788 23.9063V25.1705H39.8016ZM40.8129 36.5483C40.0544 36.5483 39.8016 37.054 39.8016 38.0654V39.0767H41.8243V38.0654C41.8243 37.054 41.5715 36.5483 40.8129 36.5483ZM33.4805 36.5483C33.2277 36.5483 32.722 36.8012 32.4692 37.054V43.8807C32.722 44.1336 33.2277 44.3864 33.4805 44.3864C33.9862 44.3864 34.2391 43.8807 34.2391 42.8694V38.0654C34.2391 37.054 33.9862 36.5483 33.4805 36.5483Z" fill="white"/>
<path d="M45.8694 30.985C45.3637 29.2151 43.8466 27.6981 42.3296 27.6981C38.2841 27.1924 33.9858 27.1924 29.6875 27.1924C25.3892 27.1924 21.3438 27.1924 17.0455 27.6981C15.5284 27.6981 14.0114 29.2151 13.5057 30.985C13 33.5134 13 36.2947 13 38.8231C13 41.3515 13 44.1327 13.5057 46.6612C14.0114 48.431 15.2756 49.6953 17.0455 49.9481C21.3438 50.4538 25.3892 50.4538 29.6875 50.4538C33.9858 50.4538 38.0313 50.4538 42.3296 49.9481C44.0995 49.6953 45.6165 48.431 45.8694 46.6612C46.375 44.1327 46.375 41.3515 46.375 38.8231C46.375 36.2947 46.375 33.5134 45.8694 30.985ZM22.608 33.2606H20.0796V46.1555H17.804V33.2606H15.5284V30.985H22.608V33.2606ZM28.6762 46.1555H26.6534V44.8913C25.8949 45.9026 25.1364 46.1555 24.3779 46.1555C23.6193 46.1555 23.3665 45.9026 23.1136 45.397C23.1136 45.1441 22.8608 44.6384 22.8608 43.6271V34.7776H24.8835V43.6271C24.8835 43.8799 25.1364 44.1327 25.3892 44.1327C25.8949 44.1327 26.1477 43.8799 26.6534 43.1214V34.7776H28.6762V46.1555ZM36.2614 42.6157C36.2614 43.6271 36.2614 44.3856 36.0086 44.8913C35.7557 45.6498 35.25 46.1555 34.4915 46.1555C33.733 46.1555 32.9745 45.6498 32.4688 44.8913V45.9026H30.446V30.985H32.4688V35.789C33.2273 35.0305 33.733 34.5248 34.4915 34.5248C35.25 34.5248 35.7557 35.0305 36.0086 35.789C36.2614 36.2947 36.2614 37.0532 36.2614 38.0646V42.6157ZM43.8466 40.8458H39.8012V42.8685C39.8012 43.8799 40.054 44.3856 40.8125 44.3856C41.3182 44.3856 41.5711 44.1327 41.8239 43.6271V42.3629H43.8466V43.8799C43.8466 44.3856 43.5938 44.6384 43.3409 45.1441C42.8353 45.9026 42.0767 46.4083 40.8125 46.4083C39.8012 46.4083 39.0426 45.9026 38.2841 45.1441C37.7784 44.6384 37.5256 43.6271 37.5256 42.6157V38.8231C37.5256 37.5589 37.7784 36.8003 38.0313 36.2947C38.537 35.5361 39.2955 35.0305 40.5597 35.0305C41.5711 35.0305 42.3296 35.5361 42.8353 36.2947C43.3409 36.8003 43.3409 37.8117 43.3409 38.8231V40.8458H43.8466Z" fill="white"/>
<defs>
<linearGradient id="paint0_linear_104_252" x1="53.5" y1="2.5" x2="13" y2="67.5" gradientUnits="userSpaceOnUse">
<stop stop-color="#B90832"/>
<stop offset="1" stop-color="#FF0000"/>
</linearGradient>
</defs>
</svg>
